# Blender 3.6.2
# www.blender.org
mtllib dice_tower_funnel.mtl
o Steeper_bottom_slope_and_funnel
v -0.500000 -0.150000 1.000000
v 0.011016 1.497566 0.536972
v 0.011016 1.547566 0.536972
v -0.012274 1.997566 0.946100
v 0.011016 1.497566 0.946972
v -0.012274 2.047567 0.946100
v -0.500000 0.150000 1.000000
v 0.011016 1.547566 0.946972
v -0.500000 -0.150000 -1.000000
v -0.012274 1.997566 0.536100
v -0.500000 0.150000 -1.000000
v -0.012274 2.047567 0.536100
v 0.500000 -0.150000 1.000000
v 0.011016 0.497566 0.536972
v 0.011016 0.547566 0.536972
v 0.500000 0.150000 1.000000
v 0.500000 -0.150000 -1.000000
v 0.011016 0.497566 0.946972
v 0.011016 0.547566 0.946972
v 0.500000 0.150000 -1.000000
v -0.450000 0.365828 0.950000
v -0.012274 0.997566 0.946100
v -0.450000 0.150000 -0.950000
v -0.012274 1.047566 0.946100
v 0.450000 0.150000 -0.950000
v -0.012274 0.997566 0.536100
v -0.012274 1.047566 0.536100
v 0.450000 0.365828 0.950000
v -0.450000 -0.100000 0.950000
v -0.450000 -0.100000 -0.950000
v 0.450000 -0.100000 -0.950000
v -0.500000 -0.150000 0.525506
v -0.500000 0.150000 0.525506
v 0.500000 -0.150000 0.525506
v 0.500000 0.150000 0.525506
v -0.450000 0.150000 0.525506
v 0.450000 0.150000 0.525506
v -0.450000 -0.100000 0.525506
v 0.450000 -0.100000 0.525506
v 0.500000 1.650000 0.525506
v 0.500000 1.650000 1.000000
v -0.500000 1.650000 1.000000
v 0.450000 1.650000 0.525506
v 0.450000 1.650000 0.950000
v -0.450000 1.650000 0.950000
v -0.500000 1.650000 0.525506
v -0.450000 1.650000 0.525506
v 0.500000 1.650000 0.472503
v 0.500000 0.150000 0.472503
v 0.450000 0.150000 0.472503
v 0.450000 1.650000 0.472503
v -0.500000 0.150000 0.472503
v -0.450000 0.150000 0.472503
v -0.500000 1.650000 0.472503
v -0.450000 1.650000 0.472503
v 0.500000 2.650000 0.525506
v 0.500000 2.650000 1.000000
v -0.500000 2.650000 1.000000
v 0.450000 2.650000 0.525506
v 0.450000 2.650000 0.950000
v -0.450000 2.650000 0.950000
v -0.500000 2.650000 0.525506
v -0.450000 2.650000 0.525506
v -0.500000 2.650000 0.472503
v -0.450000 2.650000 0.472503
v 0.500000 2.650000 0.472503
v 0.450000 2.650000 0.472503
v 0.450000 1.399822 0.946100
v 0.450000 1.449822 0.946100
v 0.450000 1.399822 0.536100
v 0.450000 1.449822 0.536100
v 0.450000 2.399822 0.946100
v 0.450000 2.449822 0.946100
v 0.450000 2.399822 0.536100
v 0.450000 2.449822 0.536100
v 0.450000 0.528811 0.525506
v 0.450000 0.528811 0.472503
v -0.450000 0.528811 0.525506
v -0.450000 0.528811 0.472503
v -0.450000 0.898727 0.536972
v -0.450000 0.948727 0.536972
v -0.450000 0.898727 0.946972
v -0.450000 0.948727 0.946972
v -0.450000 1.948727 0.536972
v -0.450000 1.898727 0.536972
v -0.450000 1.898727 0.946972
v -0.450000 1.948727 0.946972
v 0.856716 3.253037 0.373383
v 0.856716 3.253037 0.259374
v 0.856716 3.253037 1.234509
v -0.856716 3.253037 1.234509
v 0.771044 3.253037 1.126959
v 0.771044 3.253037 0.373383
v -0.771044 3.253037 0.373383
v 0.771044 3.253037 0.259374
v -0.856716 3.253037 0.373383
v -0.856716 3.253037 0.259374
v -0.771044 3.253037 0.259374
v -0.771044 3.253037 1.126959
vn -1.0000 -0.0000 -0.0000
vn -0.0000 -0.0000 -1.0000
vn 1.0000 -0.0000 -0.0000
vn -0.0000 -0.0000 1.0000
vn -0.0000 -1.0000 -0.0000
vn -0.0000 1.0000 -0.0000
vn -0.0000 0.6736 -0.7391
vn 0.8607 -0.5091 -0.0000
vn -0.0000 -0.3332 -0.9428
vn -0.8607 -0.5091 -0.0000
vn 0.8827 0.4699 -0.0000
vn 0.6564 -0.7544 -0.0000
vn -0.6564 0.7544 -0.0000
vn -0.0000 0.2446 0.9696
vn -0.6564 -0.7544 -0.0000
vn 0.6564 0.7544 -0.0000
vn -0.0000 0.2816 -0.9595
vn -0.8827 0.4699 -0.0000
vn -0.0000 -0.3624 0.9320
vt 0.375000 0.057435
vt 0.625000 0.057435
vt 0.625000 0.250000
vt 0.375000 0.250000
vt 0.625000 0.500000
vt 0.375000 0.500000
vt 0.375000 0.692565
vt 0.625000 0.692565
vt 0.625000 0.750000
vt 0.375000 0.750000
vt 0.625000 1.000000
vt 0.375000 1.000000
vt 0.125000 0.692565
vt 0.125000 0.750000
vt 0.625000 0.692565
vt 0.625000 0.749472
vt 0.625000 0.693999
vt 0.625000 0.749472
vt 0.625000 0.693998
vt 0.625000 0.057435
vt 0.625000 0.000000
vt 0.875000 0.500000
vt 0.875000 0.692565
vt 0.125000 0.500000
vt 0.375000 0.000000
vt 0.875000 0.750000
vt 0.625000 0.055884
vt 0.625000 0.055884
vt 0.625000 0.000410
vt 0.625000 0.000410
vt 0.625000 0.000410
vt 0.625000 0.055884
vt 0.625000 0.000410
vt 0.625000 0.055884
vt 0.625000 0.749472
vt 0.375000 0.500000
vt 0.375000 0.499320
vt 0.625000 0.499320
vt 0.625000 0.750680
vt 0.375000 0.750680
vt 0.374320 0.500000
vt 0.374320 0.750000
vt 0.625680 0.500000
vt 0.625680 0.750000
vt 0.375000 0.750680
vt 0.374320 0.500000
vt 0.625681 0.500000
vt 0.625681 0.750000
s 0
usemtl Material.002
f 32/1/1 33/2/1 11/3/1 9/4/1
f 9/4/2 11/3/2 20/5/2 17/6/2
f 34/7/3 35/8/3 16/9/3 13/10/3
f 13/10/4 16/9/4 7/11/4 1/12/4
f 32/13/5 34/7/5 13/10/5 1/14/5
f 35/8/6 20/5/6 25/5/6 37/15/6
f 16/9/3 35/8/3 40/8/3 41/9/3
f 69/16/1 44/9/1 43/8/1 71/17/1
f 71/17/1 43/8/1 37/15/1 28/9/1 44/9/1 69/16/1 68/18/1 70/19/1
f 20/5/6 11/3/6 23/3/6 25/5/6
f 25/5/4 23/3/4 30/3/4 31/5/4
f 37/15/1 25/5/1 31/5/1 39/8/1
f 36/20/3 21/21/3 29/21/3 38/2/3
f 23/3/3 36/20/3 38/2/3 30/3/3
f 28/9/1 37/15/1 39/8/1
f 31/5/6 30/22/6 38/23/6 39/8/6
f 11/3/6 33/2/6 36/20/6 23/3/6
f 40/8/3 35/8/3 49/8/3 48/8/3
f 9/24/5 17/6/5 34/7/5 32/13/5
f 17/6/3 20/5/3 35/8/3 34/7/3
f 1/25/1 7/21/1 33/2/1 32/1/1
f 39/8/7 38/23/7 21/26/7 28/9/7
f 38/2/1 29/21/1 21/21/1
f 40/8/3 48/8/3 66/8/3 56/8/3
f 55/2/2 54/2/2 64/2/2 65/2/2
f 44/9/2 45/11/2 61/11/2 60/9/2
f 28/9/2 21/11/2 45/11/2 44/9/2
f 33/2/1 46/2/1 54/2/1 52/2/1
f 33/2/1 7/21/1 42/21/1 46/2/1
f 7/11/4 16/9/4 41/9/4 42/11/4
f 45/21/3 21/21/3 36/20/3 47/2/3 81/27/3 80/28/3 82/29/3 83/30/3
f 81/27/3 47/2/3 45/21/3 83/30/3
f 49/8/2 50/15/2 51/15/2 48/8/2
f 53/2/2 52/2/2 54/2/2 55/2/2
f 43/8/4 59/15/4 63/2/4 47/2/4
f 36/20/5 33/2/5 52/2/5 53/2/5
f 79/2/1 78/20/1 47/2/1 55/2/1
f 35/8/5 37/15/5 50/15/5 49/8/5
f 46/2/1 42/21/1 58/21/1 62/2/1
f 57/9/8 56/8/8 88/8/8 90/9/8
f 66/8/9 67/15/9 95/15/9 89/8/9
f 64/2/10 62/2/10 96/2/10 97/2/10
f 67/15/9 65/2/9 98/2/9 95/15/9
f 61/21/11 63/2/11 94/2/11 99/21/11
f 41/9/3 40/8/3 56/8/3 57/9/3
f 54/2/1 46/2/1 62/2/1 64/2/1
f 86/31/3 45/21/3 47/2/3 85/32/3
f 85/32/3 47/2/3 63/2/3 61/21/3 45/21/3 86/31/3 87/33/3 84/34/3
f 48/8/2 51/15/2 67/15/2 66/8/2
f 76/15/3 77/15/3 51/15/3 43/8/3
f 42/11/4 41/9/4 57/9/4 58/11/4
f 73/35/1 60/9/1 59/15/1 75/19/1
f 75/19/1 59/15/1 43/8/1 44/9/1 60/9/1 73/35/1 72/18/1 74/19/1
f 4/25/1 6/21/1 12/3/1 10/4/1
f 10/4/2 12/3/2 75/5/2 74/6/2
f 6/11/4 4/12/4 72/10/4 73/9/4
f 72/10/12 4/14/12 10/24/12 74/6/12
f 12/22/13 6/26/13 73/9/13 75/5/13
f 22/25/1 24/21/1 27/3/1 26/4/1
f 26/4/2 27/3/2 71/5/2 70/36/2
f 24/11/4 22/12/4 68/10/4 69/9/4
f 68/10/12 22/14/12 26/24/12 70/36/12
f 27/22/13 24/26/13 69/9/13 71/5/13
f 63/2/14 59/15/14 93/15/14 94/2/14
f 67/15/2 51/15/2 55/2/2 65/2/2
f 77/15/5 76/15/5 78/20/5 79/2/5
f 78/20/4 76/15/4 43/8/4 47/2/4
f 50/15/1 37/15/1 76/15/1 77/15/1
f 77/15/2 79/2/2 55/2/2 51/15/2
f 36/20/3 53/2/3 79/2/3 78/20/3
f 2/25/3 3/21/3 8/3/3 5/4/3
f 86/37/4 5/4/4 8/3/4 87/38/4
f 84/39/2 3/11/2 2/12/2 85/40/2
f 2/14/15 5/24/15 86/41/15 85/42/15
f 87/43/16 8/22/16 3/26/16 84/44/16
f 14/25/3 15/21/3 19/3/3 18/4/3
f 82/37/4 18/4/4 19/3/4 83/38/4
f 81/39/2 15/11/2 14/12/2 80/45/2
f 14/14/15 18/24/15 82/46/15 80/42/15
f 83/47/16 19/22/16 15/26/16 81/48/16
f 96/2/6 91/21/6 99/21/6 94/2/6
f 91/11/6 90/9/6 92/9/6 99/11/6
f 90/9/6 88/8/6 93/15/6 92/9/6
f 93/15/6 88/8/6 89/8/6 95/15/6
f 96/2/6 94/2/6 98/2/6 97/2/6
f 93/15/6 95/15/6 98/2/6 94/2/6
f 60/9/17 61/11/17 99/11/17 92/9/17
f 65/2/9 64/2/9 97/2/9 98/2/9
f 62/2/10 58/21/10 91/21/10 96/2/10
f 56/8/8 66/8/8 89/8/8 88/8/8
f 59/15/18 60/9/18 92/9/18 93/15/18
f 58/11/19 57/9/19 90/9/19 91/11/19
